<?xml version="1.0" encoding="utf-8"?>
<!-- Generator: Adobe Illustrator 27.0.0, SVG Export Plug-In . SVG Version: 6.00 Build 0)  -->
<svg version="1.1" id="Layer_1" xmlns="http://www.w3.org/2000/svg" xmlns:xlink="http://www.w3.org/1999/xlink" x="0px" y="0px"
	 viewBox="0 0 916.8 313.6" style="enable-background:new 0 0 916.8 313.6;" xml:space="preserve">
<style type="text/css">
	.st0{fill:#FFFFFF;}
</style>
<g>
	<path class="st0" d="M253.4,102.3h46.7v14.4h-29.5v38.8h27.8v14.4h-27.8v41.9h29.5v14.4h-46.7V102.3z"/>
	<path class="st0" d="M320.9,102.3h26.6c25.1,0,27.6,6.7,27.6,33.8c0,16.7-2.2,23.9-16.3,28.2v0.3c11.7,1.2,15.6,7.2,15.6,18.9v27
		c0,4.5,0,10.6,1,15.8h-16c-1.7-3.1-2.1-6.2-2.1-11.2v-28c0-11.7-2.1-14.8-13.4-14.8h-5.8v53.9h-17.2V102.3z M338.1,157.9h4.5
		c13.6,0,15.5-2.6,15.5-21.1c0-18.4-1-20.1-11.7-20.1h-8.2L338.1,157.9L338.1,157.9z"/>
	<path class="st0" d="M398.4,102.3h46.7v14.4h-29.5v38.8h27.8v14.4h-27.8v56.3h-17.2V102.3z"/>
	<path class="st0" d="M465.7,102.3h17.2v124h-17.2V102.3z"/>
	<path class="st0" d="M505.1,133.9c0-17.3,5.7-32.6,29-32.6c17,0,24.9,8.6,24.9,22.5v12.4h-16.1v-8.6c0-7.9-2.7-12.9-10-12.9
		c-8.9,0-10.6,6.4-10.6,21.3v60.8c0,14.6,4.6,17.2,10.1,17.2c6.4,0,10.5-4.5,10.5-14.8v-8.6H559v13.7c0,13.1-5.3,23-25.2,23
		c-21.6,0-28.7-11.5-28.7-30.7L505.1,133.9L505.1,133.9z"/>
	<path class="st0" d="M580,102.3h17.2v124H580V102.3z"/>
	<path class="st0" d="M620.4,102.3h46.7v14.4h-29.5v38.8h27.8v14.4h-27.8v41.9h29.5v14.4h-46.7V102.3z"/>
	<path class="st0" d="M687.9,102.3h23.7l20.3,103h0.3v-103h16.1v124h-24.7l-20.3-105.8H703v105.8h-15.1L687.9,102.3L687.9,102.3z"/>
	<path class="st0" d="M769.1,102.3h58.4v14.4h-20.6v109.6h-17.2V116.7h-20.6L769.1,102.3L769.1,102.3z"/>
	<g>
		<path class="st0" d="M69.3,244.2V69.4H171c42.1,0,62,24.5,62,57.4c0,34.9-22.8,58.6-71.7,58.6h-23.1v-6.2h17.5
			c34,0,49.7-18.5,49.7-45.7c0-25.7-13.8-44.8-43-44.8H91.8v136.5h46.8v19.2H69.3V244.2z"/>
		<path class="st0" d="M138.2,148.1v-28.5h5c10.4,0,14.5,4.2,14.5,13.8s-4.7,14.7-17.1,14.7H138.2L138.2,148.1z"/>
	</g>
	<path class="st0" d="M840.3,116.7c4,0,7.2-3.2,7.2-7.2s-3.2-7.2-7.2-7.2s-7.2,3.2-7.2,7.2C833.1,113.5,836.3,116.7,840.3,116.7
		L840.3,116.7z M840.3,115.4c-3.3,0-5.9-2.7-5.9-5.9c0-3.2,2.7-5.9,5.9-5.9c3.3,0,5.9,2.7,5.9,5.9
		C846.2,112.7,843.6,115.4,840.3,115.4L840.3,115.4z M839.9,109.9c0.5,0,0.9,0,1.2,0.3c0.4,0.4,0.4,1.1,0.5,1.8
		c0.1,0.5,0.2,1,0.3,1.5h1.7c-0.3-0.8-0.4-1.6-0.5-2.4c-0.1-0.9-0.3-1.4-1.4-1.7l0,0c1.1-0.2,1.7-1,1.7-2c0-1.9-1.6-2.3-3.2-2.3
		h-2.7v8.4h1.3v-3.6L839.9,109.9L839.9,109.9z M838.8,108.6v-2.2h1.6c1,0,1.3,0.3,1.3,1s-0.3,1.2-1.5,1.2H838.8L838.8,108.6z"/>
</g>
</svg>
